<?xml version="1.0" standalone="no"?>
<!DOCTYPE svg PUBLIC "-//W3C//DTD SVG 20010904//EN"
 "http://www.w3.org/TR/2001/REC-SVG-20010904/DTD/svg10.dtd">
<svg version="1.0" xmlns="http://www.w3.org/2000/svg"
 width="256.000000pt" height="256.000000pt" viewBox="0 0 256.000000 256.000000"
 preserveAspectRatio="xMidYMid meet">
<metadata>
Created by potrace 1.11, written by Peter Selinger 2001-2013
</metadata>
<g transform="translate(0.000000,256.000000) scale(0.100000,-0.100000)"
fill="#000000" stroke="none">
<path d="M995 2550 c-33 -4 -89 -11 -125 -15 -36 -4 -74 -9 -85 -11 -11 -3
-36 -7 -55 -10 -222 -37 -459 -143 -520 -231 -24 -35 -25 -44 -25 -173 0 -128
2 -139 24 -171 28 -41 102 -94 184 -132 59 -28 228 -81 288 -91 19 -3 45 -8
59 -11 24 -5 45 -8 115 -20 143 -24 600 -27 760 -6 380 50 627 147 707 276 24
39 26 246 3 301 -27 66 -123 132 -270 186 -73 27 -207 63 -273 73 -199 32
-259 37 -482 39 -135 1 -272 -1 -305 -4z"/>
<path d="M180 1585 c0 -143 9 -173 63 -225 112 -106 401 -196 722 -227 127
-13 540 -9 650 5 381 50 658 162 711 289 13 30 21 283 10 283 -3 0 -37 -18
-78 -39 -40 -22 -103 -51 -140 -65 -66 -24 -240 -70 -308 -81 -231 -35 -291
-40 -545 -40 -193 0 -399 10 -415 20 -3 2 -32 6 -65 10 -160 17 -395 87 -521
154 -42 23 -77 41 -80 41 -2 0 -4 -56 -4 -125z"/>
<path d="M180 1050 c0 -175 14 -205 130 -280 79 -51 294 -125 415 -143 17 -3
46 -8 65 -11 19 -3 49 -8 65 -11 155 -27 650 -27 810 0 17 3 44 7 60 10 17 3
41 7 55 10 14 3 39 8 55 10 58 11 178 46 255 76 100 38 186 96 222 150 27 41
28 45 28 181 l0 139 -27 -19 c-91 -64 -277 -132 -458 -168 -11 -2 -30 -6 -42
-8 -45 -9 -139 -21 -253 -33 -148 -16 -597 -8 -710 11 -14 3 -47 7 -75 11
-198 25 -460 111 -567 187 l-28 19 0 -131z"/>
<path d="M180 510 c0 -149 8 -178 66 -233 58 -55 236 -137 349 -162 155 -33
220 -45 270 -51 33 -3 69 -9 80 -11 11 -3 133 -6 270 -8 251 -3 308 1 525 31
19 3 90 18 158 35 222 54 366 130 421 220 18 30 21 51 21 167 0 72 -2 132 -4
132 -2 0 -41 -20 -87 -44 -222 -119 -542 -179 -954 -180 -291 -1 -430 9 -610
45 -218 44 -379 102 -477 171 l-28 19 0 -131z"/>
</g>
</svg>
